# xmcd
#
# Track frame offsets: 
#        182
#        22735
#        47910
#        73310
#        94467
#        120042
#        146672
#        171352
#
# Disc length: 2519 seconds
#
# Revision: 9
# Processed by: cddbd v1.5.2PL0 Copyright (c) Steve Scherf et al.
# Submitted via: ExactAudioCopy v1.0b3
#
DISCID=6c09d508
DTITLE=Anita Baker - The Songstress
DYEAR=1983
DGENRE=R&B
TTITLE0=Angel
TTITLE1=You're The Best Thing Yet
TTITLE2=Feel The Need
TTITLE3=Squeeze Me
TTITLE4=No More Tears
TTITLE5=Sometimes
TTITLE6=Will You Be Mine
TTITLE7=Do You Believe Me
EXTD=
EXTT0=
EXTT1=
EXTT2=
EXTT3=
EXTT4=
EXTT5=
EXTT6=
EXTT7=
PLAYORDER=
